# xmcd CD database file
#
# Track frame offsets:
#	150
#	9692
#	23710
#	34420
#	46980
#	56645
#	68542
#	81155
#	93390
#	105910
#	116992
#	131885
#	143787
#	155330
#	170635
#	186605
#
# Disc length: 2671 seconds
#
# Revision: 1
# Processed by: cddbd v1.5.2PL0 Copyright (c) Steve Scherf et al.
# Submitted via: CDex 1.70beta2
#
DISCID=df0a6d10
DTITLE=Various Artist - Country Super Hits CD 2
DYEAR=1900
DGENRE=Country
TTITLE0=Skeeter Davis - Turn your radio on
TTITLE1=R. Dean Taylor - Indiana wants me
TTITLE2=Faron Young - Wind me up
TTITLE3=David Houston - My exclusive dreams
TTITLE4=Dennis Olsen - Truck drivin' outlaw
TTITLE5=Nat Stuckey - Sweet thang
TTITLE6=Red Simpson - Roll truck roll
TTITLE7=Johnny Russell - Rednecks, white socks, blue ribbon beer
TTITLE8=Kenny Price - Sheriff of Boone County
TTITLE9=Kenny Price - Happy tracks
TTITLE10=Jeannie C. Riley - Harper Valley P.T.A.
TTITLE11=Jack Greene - There goes my everything
TTITLE12=Sammi Smith - Help me make it through the night
TTITLE13=Melba Montgomery - No change
TTITLE14=Johnny Russell - Luchenbach Texas
TTITLE15=Anthony Armstrong Jones - Take a letter Maria
EXTD=
EXTT0=
EXTT1=
EXTT2=
EXTT3=
EXTT4=
EXTT5=
EXTT6=
EXTT7=
EXTT8=
EXTT9=
EXTT10=
EXTT11=
EXTT12=
EXTT13=
EXTT14=
EXTT15=
PLAYORDER=
